<svg width="26" height="41" viewBox="0 0 26 41" fill="none" xmlns="http://www.w3.org/2000/svg">
<g clip-path="url(#clip0_109_564)">
<path d="M23.9994 12.666C23.9994 6.18393 19.0677 0.916016 12.9994 0.916016C6.93102 0.916016 1.99935 6.18393 1.99935 12.666C1.99935 21.4785 12.9994 34.2077 12.9994 34.2077C12.9994 34.2077 23.9994 21.4785 23.9994 12.666ZM9.33268 12.666C9.33268 10.5118 10.9827 8.74935 12.9994 8.74935C15.016 8.74935 16.666 10.5118 16.666 12.666C16.666 14.8202 15.0344 16.5827 12.9994 16.5827C10.9827 16.5827 9.33268 14.8202 9.33268 12.666ZM0.166016 36.166V40.0827H25.8327V36.166H0.166016Z" fill="#F15A22"/>
</g>
<defs>
<clipPath id="clip0_109_564">
<rect width="26" height="41" fill="white"/>
</clipPath>
</defs>
</svg>
