<svg width="26" height="41" viewBox="0 0 26 41" fill="none" xmlns="http://www.w3.org/2000/svg">
<path d="M24.0001 12.666C24.0001 6.18393 19.0684 0.916016 13.0001 0.916016C6.93175 0.916016 2.00008 6.18393 2.00008 12.666C2.00008 21.4785 13.0001 34.2077 13.0001 34.2077C13.0001 34.2077 24.0001 21.4785 24.0001 12.666ZM9.33341 12.666C9.33341 10.5118 10.9834 8.74935 13.0001 8.74935C15.0167 8.74935 16.6667 10.5118 16.6667 12.666C16.6667 14.8202 15.0351 16.5827 13.0001 16.5827C10.9834 16.5827 9.33341 14.8202 9.33341 12.666ZM0.166748 36.166V40.0827H25.8334V36.166H0.166748Z" fill="#0068C9"/>
</svg>
