<svg width="29" height="41" viewBox="0 0 29 41" fill="none" xmlns="http://www.w3.org/2000/svg">
<path d="M26.7499 12.333C26.7499 5.57509 21.2578 0.0830078 14.4999 0.0830078C7.742 0.0830078 2.24992 5.57509 2.24992 12.333C2.24992 21.5205 14.4999 34.7913 14.4999 34.7913C14.4999 34.7913 26.7499 21.5205 26.7499 12.333ZM10.4166 12.333C10.4166 10.0872 12.2541 8.24967 14.4999 8.24967C16.7458 8.24967 18.5833 10.0872 18.5833 12.333C18.5833 14.5788 16.7662 16.4163 14.4999 16.4163C12.2541 16.4163 10.4166 14.5788 10.4166 12.333ZM0.208252 36.833V40.9163H28.7916V36.833H0.208252Z" fill="#0068C9"/>
</svg>
