<svg width="25" height="24" viewBox="0 0 25 24" fill="none" xmlns="http://www.w3.org/2000/svg">
<path d="M12.5013 12C11.3555 12 10.418 11.1 10.418 10C10.418 8.9 11.3555 8 12.5013 8C13.6471 8 14.5846 8.9 14.5846 10C14.5846 11.1 13.6471 12 12.5013 12ZM18.7513 10.2C18.7513 6.57 15.9909 4 12.5013 4C9.01172 4 6.2513 6.57 6.2513 10.2C6.2513 12.54 8.28255 15.64 12.5013 19.34C16.7201 15.64 18.7513 12.54 18.7513 10.2ZM12.5013 2C16.8763 2 20.8346 5.22 20.8346 10.2C20.8346 13.52 18.0534 17.45 12.5013 22C6.94922 17.45 4.16797 13.52 4.16797 10.2C4.16797 5.22 8.1263 2 12.5013 2Z" fill="white"/>
</svg>
